<?xml version="1.0" encoding="utf-8"?>
<!-- Generator: Adobe Illustrator 17.0.0, SVG Export Plug-In . SVG Version: 6.00 Build 0)  -->
<!DOCTYPE svg PUBLIC "-//W3C//DTD SVG 1.1//EN" "http://www.w3.org/Graphics/SVG/1.1/DTD/svg11.dtd">
<svg version="1.1" id="Capa_1" xmlns="http://www.w3.org/2000/svg" xmlns:xlink="http://www.w3.org/1999/xlink" x="0px" y="0px"
	 width="113px" height="68px" viewBox="0 0 113 68" enable-background="new 0 0 113 68" xml:space="preserve">
<g>
	<path fill="#FFFFFF" d="M9.553,0.682c0,0.17,0,0.263,0,0.356c0.018,13.972,0.032,27.943,0.056,41.915
		c0.008,4.576,0.039,9.152,0.067,13.727c0.002,0.244-0.067,0.414-0.243,0.585c-3.048,2.953-6.09,5.912-9.134,8.869
		c-0.039,0.038-0.083,0.07-0.171,0.143c0-0.167,0-0.28,0-0.393c-0.016-4.527-0.033-9.054-0.047-13.581
		c-0.02-6.703-0.042-13.405-0.054-20.108C0.014,25.493,0.013,18.79,0,12.087c-0.001-0.268,0.065-0.472,0.246-0.68
		c3.007-3.46,6.005-6.929,9.006-10.395C9.332,0.92,9.416,0.831,9.553,0.682z"/>
	<path fill="#FFFFFF" d="M32.877,58.888c-0.496,0.475-0.978,0.94-1.465,1.401c-2.658,2.515-5.318,5.026-7.971,7.547
		c-0.191,0.181-0.347,0.199-0.592,0.12c-2.219-0.713-4.077-1.973-5.649-3.677c-1.052-1.141-1.905-2.417-2.603-3.801
		c-0.08-0.158-0.035-0.241,0.074-0.349c0.771-0.761,1.531-1.532,2.306-2.288c0.215-0.209,0.309-0.432,0.272-0.73
		c-0.028-0.222-0.023-0.448-0.024-0.672c-0.03-17.691-0.058-35.381-0.092-53.072c0-0.259,0.054-0.475,0.22-0.671
		C17.9,2.049,18.444,1.4,18.989,0.751c0.026,0.006,0.051,0.012,0.077,0.018c0,0.11,0,0.22,0,0.329
		c0.006,6.343,0.006,12.685,0.021,19.028c0.012,5.289-0.028,10.578,0.083,15.865c0.102,4.886,1.276,9.523,3.84,13.732
		c2.06,3.382,4.705,6.213,8.144,8.244C31.705,58.292,32.283,58.572,32.877,58.888z"/>
	<path fill="#FFFFFF" d="M41.388,56.842c-1.649-0.218-3.259-0.6-4.819-1.178c-3.106-1.15-5.787-2.912-7.909-5.488
		c-2.249-2.732-3.616-5.878-4.399-9.3c-0.548-2.396-0.787-4.825-0.788-7.283c-0.002-8.568-0.02-17.135-0.032-25.703
		c-0.002-1.483-0.001-2.966-0.016-4.449c-0.003-0.269,0.053-0.502,0.221-0.704c0.554-0.666,1.111-1.329,1.723-2.059
		c0.013,0.171,0.024,0.251,0.025,0.332c0.016,9.973,0.043,19.946,0.039,29.918c-0.001,2.246-0.002,4.487,0.284,6.719
		c0.395,3.076,1.21,6.024,2.755,8.731c2.05,3.592,5.054,6.067,8.936,7.481c1.909,0.696,3.883,1.09,5.906,1.238
		c0.817,0.059,1.636,0.079,2.454,0.116c0.114,0.005,0.227,0.012,0.411,0.021c-0.324,0.307-0.601,0.574-0.882,0.835
		c-2.914,2.712-5.83,5.422-8.74,8.138c-0.139,0.13-0.246,0.161-0.431,0.092c-0.592-0.219-1.193-0.412-1.825-0.627
		c2.395-2.264,4.765-4.503,7.135-6.743C41.421,56.9,41.404,56.871,41.388,56.842z"/>
	<path fill="#FFFFFF" d="M22.211,0.741c0,0.103,0,0.206,0,0.31c0.011,7.454,0.022,14.909,0.033,22.363
		c0.005,3.512,0.009,7.025,0.016,10.537c0.007,3.33,0.475,6.592,1.528,9.755c0.977,2.936,2.401,5.634,4.509,7.925
		c2.576,2.799,5.745,4.639,9.39,5.682c0.393,0.112,0.791,0.209,1.255,0.331c-0.203,0.187-0.38,0.347-0.554,0.51
		c-2.982,2.796-5.964,5.592-8.942,8.393c-0.125,0.118-0.226,0.142-0.386,0.079c-0.588-0.231-1.182-0.448-1.853-0.7
		c2.657-2.512,5.267-4.979,7.905-7.474c-0.105-0.052-0.167-0.091-0.235-0.115c-2.869-1.013-5.334-2.662-7.449-4.825
		c-2.227-2.278-3.912-4.923-5.108-7.878c-1.183-2.924-1.804-5.973-1.928-9.112c-0.095-2.416-0.088-4.837-0.091-7.256
		C20.29,20.6,20.294,11.936,20.287,3.272c0-0.239,0.05-0.435,0.203-0.616c0.547-0.647,1.088-1.299,1.632-1.949
		C22.151,0.719,22.181,0.73,22.211,0.741z"/>
	<path fill="#FFFFFF" d="M44.654,21.275c-1.213,0-2.418,0-3.655,0c0.016-0.941,0.176-1.83,0.621-2.653
		c0.59-1.092,1.527-1.767,2.688-2.113c2.066-0.615,4.16-0.645,6.23-0.046c1.906,0.552,2.922,1.918,3.215,3.842
		c0.08,0.528,0.115,1.067,0.117,1.601c0.011,3.005,0.005,6.01,0.005,9.015c0,0.116,0,0.232,0,0.37c-1.22,0-2.425,0-3.687,0
		c-0.078-0.39-0.16-0.802-0.248-1.242c-0.843,0.838-1.85,1.323-2.989,1.526c-1.406,0.25-2.803,0.221-4.141-0.329
		c-1.454-0.597-2.21-1.725-2.274-3.28c-0.026-0.637,0.025-1.291,0.148-1.916c0.3-1.52,1.301-2.433,2.723-2.938
		c1.156-0.411,2.365-0.563,3.567-0.757c0.652-0.105,1.303-0.233,1.939-0.409c0.566-0.157,0.895-0.553,0.93-1.171
		c0.037-0.647-0.249-1.1-0.82-1.353c-1.007-0.446-2.043-0.478-3.07-0.074c-0.669,0.263-1.021,0.816-1.2,1.491
		C44.715,20.977,44.688,21.12,44.654,21.275z M49.875,24.195c-0.413,0.15-0.876,0.342-1.355,0.484c-0.391,0.116-0.8,0.17-1.2,0.255
		c-0.716,0.151-1.435,0.301-2.059,0.712c-0.693,0.456-0.966,1.263-0.744,2.14c0.164,0.647,0.67,1.01,1.524,1.095
		c1.859,0.184,3.567-1.046,3.82-2.815C49.952,25.431,49.875,24.772,49.875,24.195z"/>
	<path fill="#FFFFFF" d="M106.453,31.299c-1.236,0-2.442,0-3.689,0c-0.079-0.403-0.158-0.809-0.244-1.251
		c-0.568,0.564-1.207,0.985-1.942,1.236c-1.729,0.591-3.471,0.631-5.18-0.039c-1.463-0.573-2.217-1.715-2.283-3.271
		c-0.027-0.637,0.022-1.291,0.145-1.917c0.298-1.52,1.295-2.437,2.717-2.944c1.155-0.412,2.364-0.568,3.567-0.758
		c0.615-0.097,1.235-0.193,1.831-0.364c0.761-0.218,1.049-0.639,1.05-1.356c0-0.532-0.252-0.93-0.712-1.156
		c-1.073-0.526-2.184-0.561-3.279-0.088c-0.623,0.269-0.944,0.821-1.107,1.465c-0.033,0.132-0.059,0.265-0.092,0.415
		c-1.208,0-2.413,0-3.673,0c0.033-0.345,0.048-0.681,0.1-1.012c0.32-2.014,1.497-3.281,3.439-3.817
		c1.926-0.532,3.879-0.546,5.811-0.042c2.012,0.525,3.119,1.894,3.421,3.925c0.078,0.528,0.113,1.067,0.115,1.602
		c0.011,2.995,0.005,5.99,0.005,8.986C106.453,31.03,106.453,31.147,106.453,31.299z M102.457,24.119
		c-0.564,0.421-1.257,0.547-1.942,0.693c-0.828,0.176-1.671,0.297-2.437,0.692c-0.575,0.296-0.934,0.742-1.03,1.397
		c-0.152,1.032,0.336,1.785,1.297,1.943c0.267,0.044,0.545,0.058,0.815,0.04c1.726-0.112,3.072-1.246,3.284-2.833
		C102.527,25.421,102.457,24.77,102.457,24.119z"/>
	<path fill="#FFFFFF" d="M83.157,24.9c-3.433,0-6.816,0-10.26,0c0.045,0.31,0.075,0.594,0.128,0.874
		c0.278,1.471,1.222,2.495,2.557,2.757c0.706,0.139,1.399,0.064,2.058-0.234c0.604-0.274,1.046-0.707,1.248-1.352
		c1.344,0,2.669,0,4.029,0c-0.016,0.085-0.023,0.156-0.044,0.224c-0.804,2.562-2.981,4.291-5.659,4.505
		c-1.237,0.099-2.457,0.017-3.648-0.334c-2.043-0.602-3.41-1.933-4.045-3.955c-0.715-2.275-0.824-4.589-0.063-6.874
		c0.851-2.553,2.704-3.949,5.329-4.354c1.107-0.171,2.216-0.144,3.312,0.106c1.699,0.387,2.996,1.325,3.842,2.857
		C82.928,20.907,83.134,22.861,83.157,24.9z M73.041,22.405c2.023,0,4.025,0,6.027,0c0.037-1.363-0.765-3.047-2.731-3.206
		C74.523,19.053,73.179,20.371,73.041,22.405z"/>
	<path fill="#FFFFFF" d="M55.609,12.453c1.298,0,2.552,0,3.849,0c0,1.33,0,2.65,0,3.992c2.762,0,5.481,0,8.217,0
		c0,0.934,0,1.846,0,2.787c-2.725,0-5.443,0-8.193,0c-0.007,0.13-0.018,0.232-0.018,0.335c-0.001,1.874-0.017,3.747,0.009,5.62
		c0.008,0.559,0.073,1.133,0.22,1.671c0.247,0.907,0.945,1.401,1.851,1.424c1.177,0.03,1.914-0.364,2.221-1.322
		c0.178-0.555,0.242-1.163,0.263-1.75c0.04-1.101,0.011-2.205,0.011-3.307c0-0.114,0-0.228,0-0.357c1.232,0,2.427,0,3.64,0
		c0.005,0.087,0.013,0.163,0.013,0.238c0.001,1.425,0.029,2.85-0.007,4.274c-0.042,1.627-0.55,3.082-1.778,4.218
		c-0.775,0.717-1.708,1.12-2.734,1.304c-1.265,0.227-2.529,0.197-3.765-0.174c-2.035-0.61-3.214-2.013-3.642-4.063
		c-0.105-0.502-0.149-1.025-0.151-1.538c-0.012-4.303-0.007-8.606-0.007-12.91C55.609,12.762,55.609,12.626,55.609,12.453z"/>
	<path fill="#FFFFFF" d="M3.363,66.279c-0.008-0.104-0.008-0.151-0.016-0.197c-0.145-0.832,0.173-1.42,0.793-2.004
		c2.173-2.046,4.282-4.16,6.422-6.242c0.209-0.204,0.301-0.409,0.301-0.71c-0.027-11.24-0.047-22.48-0.064-33.72
		c-0.01-6.703-0.014-13.406-0.026-20.109c0-0.221,0.062-0.387,0.207-0.551c0.536-0.606,1.062-1.222,1.589-1.836
		c0.049-0.057,0.075-0.133,0.112-0.2c0.032,0.021,0.065,0.042,0.097,0.063c0,0.113,0,0.225,0,0.338
		c0.013,10.128,0.022,20.256,0.039,30.384c0.014,8.42,0.038,16.84,0.061,25.26c0,0.182-0.023,0.327-0.168,0.468
		c-3.062,2.967-6.118,5.94-9.176,8.911C3.492,66.173,3.447,66.207,3.363,66.279z"/>
	<path fill="#FFFFFF" d="M6.553,66.15c0-0.377-0.014-0.756,0.009-1.132c0.007-0.106,0.108-0.221,0.193-0.304
		c1.776-1.728,3.557-3.452,5.334-5.179c0.581-0.564,1.146-1.145,1.734-1.701c0.203-0.192,0.275-0.392,0.274-0.667
		c-0.023-6.917-0.038-13.835-0.055-20.752c-0.007-2.722-0.015-5.444-0.019-8.166c-0.012-8.586-0.022-17.171-0.04-25.757
		c-0.001-0.257,0.068-0.438,0.264-0.603c0.548-0.462,1.084-0.938,1.678-1.456c0,0.165,0,0.258,0,0.352
		c0.019,13.718,0.036,27.436,0.058,41.154c0.008,4.878,0.023,9.757,0.047,14.635c0.002,0.319-0.088,0.545-0.316,0.766
		c-2.156,2.093-4.302,4.195-6.453,6.293c-0.796,0.777-1.596,1.549-2.395,2.323C6.79,66.029,6.71,66.1,6.632,66.172
		C6.606,66.165,6.579,66.158,6.553,66.15z"/>
	<path fill="#FFFFFF" d="M39.207,31.296c-1.314,0-2.599,0-3.899,0c0-6.756,0-13.495,0-20.26c1.299,0,2.589,0,3.899,0
		C39.207,17.785,39.207,24.532,39.207,31.296z"/>
	<path fill="#FFFFFF" d="M108.202,11.026c1.315,0,2.598,0,3.901,0c0,6.761,0,13.508,0,20.27c-1.302,0-2.594,0-3.901,0
		C108.202,24.539,108.202,17.8,108.202,11.026z"/>
	<path fill="#FFFFFF" d="M88.409,31.298c-1.33,0-2.615,0-3.917,0c0-4.945,0-9.874,0-14.823c1.221,0,2.427,0,3.671,0
		c0,0.536,0,1.075,0,1.614c0.021,0.019,0.041,0.037,0.062,0.056c1.144-1.818,2.873-2.215,4.855-2.05c0,1.31,0,2.63,0,3.907
		c-0.423,0-0.848-0.02-1.271,0.006c-0.397,0.024-0.802,0.054-1.183,0.156c-1.392,0.374-2.182,1.451-2.2,3.043
		c-0.026,2.223-0.013,4.447-0.016,6.671C88.409,30.344,88.409,30.81,88.409,31.298z"/>
	<path fill="#FFFFFF" d="M87.839,41.463c-1.229,1.428-3.099,1.376-4.21,0.3c-1.118-1.084-1.159-2.975-0.119-4.14
		c0.899-1.008,2.828-1.484,4.329,0.157c0-0.126,0-0.219,0-0.312c0-0.966,0.002-1.931-0.002-2.897
		c-0.001-0.21,0.043-0.379,0.291-0.381c0.249-0.001,0.293,0.168,0.293,0.378c-0.002,2.536-0.002,5.071,0,7.607
		c0,0.211-0.047,0.379-0.295,0.376c-0.248-0.003-0.295-0.174-0.288-0.383C87.844,41.956,87.839,41.745,87.839,41.463z
		 M85.578,37.287c-1.216,0.008-2.242,1.088-2.24,2.357c0.002,1.267,1.039,2.332,2.265,2.326c1.227-0.006,2.25-1.082,2.235-2.351
		C87.823,38.34,86.795,37.279,85.578,37.287z"/>
	<path fill="#FFFFFF" d="M38.718,39.734c-0.027,0.848,0.552,1.711,1.352,2.06c0.832,0.362,1.797,0.184,2.431-0.456
		c0.109-0.11,0.21-0.232,0.295-0.361c0.113-0.171,0.255-0.265,0.437-0.142c0.176,0.119,0.161,0.3,0.05,0.466
		c-0.414,0.618-0.981,1.027-1.707,1.19c-1.612,0.36-3.147-0.705-3.432-2.369c-0.28-1.64,0.872-3.221,2.483-3.407
		c1.578-0.182,3.032,1.03,3.141,2.619c0.021,0.312-0.058,0.401-0.382,0.401c-1.433,0.002-2.867,0.001-4.3,0.001
		C38.97,39.734,38.855,39.734,38.718,39.734z M38.757,39.151c1.466,0,2.912,0,4.36,0c-0.111-1.026-1.099-1.872-2.164-1.873
		C39.874,37.276,38.881,38.115,38.757,39.151z"/>
	<path fill="#FFFFFF" d="M109.205,39.641c-0.001,1.663-1.267,2.942-2.886,2.913c-1.189-0.021-2.272-0.952-2.578-2.217
		c-0.36-1.487,0.47-3.055,1.859-3.508c1.722-0.562,3.55,0.759,3.605,2.607C109.207,39.505,109.205,39.573,109.205,39.641z
		 M108.632,39.648c0.012-1.26-0.92-2.312-2.108-2.377c-1.117-0.062-2.083,0.809-2.272,2.05c-0.213,1.394,0.895,2.683,2.28,2.653
		C107.661,41.949,108.62,40.886,108.632,39.648z"/>
	<path fill="#FFFFFF" d="M52.353,36.696c0.643-0.039,1.191,0.253,1.72,0.595c0.172,0.112,0.227,0.28,0.108,0.453
		c-0.115,0.168-0.274,0.144-0.438,0.044c-0.249-0.151-0.493-0.324-0.762-0.428c-0.625-0.242-1.233-0.179-1.761,0.252
		c-0.491,0.4-0.448,0.97,0.115,1.258c0.331,0.17,0.714,0.238,1.075,0.351c0.434,0.136,0.892,0.222,1.3,0.414
		c0.961,0.453,1.099,1.662,0.284,2.346c-0.828,0.694-1.761,0.724-2.722,0.349c-0.349-0.136-0.665-0.359-0.989-0.557
		c-0.162-0.099-0.221-0.257-0.097-0.424c0.122-0.166,0.277-0.149,0.435-0.037c0.559,0.394,1.152,0.689,1.863,0.664
		c0.46-0.016,0.855-0.184,1.187-0.494c0.35-0.328,0.354-0.76,0.031-1.117c-0.321-0.355-0.761-0.445-1.194-0.563
		c-0.504-0.138-1.034-0.237-1.495-0.468c-1.041-0.522-0.888-1.759,0.008-2.312C51.42,36.774,51.867,36.68,52.353,36.696z"/>
	<path fill="#FFFFFF" d="M70.918,38.686c0-0.546,0.003-1.092-0.001-1.638c-0.001-0.201,0.05-0.352,0.285-0.351
		c0.236,0,0.287,0.154,0.287,0.353c-0.001,1.024-0.012,2.048,0.003,3.071c0.016,1.102,0.814,1.879,1.869,1.852
		c0.87-0.022,1.677-0.745,1.714-1.613c0.044-1.041,0.024-2.085,0.031-3.128c0.001-0.088-0.03-0.195,0.009-0.259
		c0.067-0.107,0.165-0.238,0.273-0.266c0.183-0.047,0.291,0.085,0.291,0.272c-0.001,1.16,0.044,2.323-0.025,3.479
		c-0.076,1.263-1.214,2.154-2.543,2.095c-1.2-0.053-2.191-1.112-2.194-2.347C70.917,39.7,70.918,39.193,70.918,38.686z"/>
	<path fill="#FFFFFF" d="M61.901,37.274c-0.273,0-0.497-0.004-0.721,0.001c-0.21,0.005-0.304-0.093-0.301-0.3
		c0.003-0.197,0.1-0.279,0.294-0.273c0.232,0.007,0.464,0.002,0.727,0.002c0-0.657,0-1.288,0-1.919c0-0.088-0.005-0.176,0.002-0.263
		c0.014-0.183,0.11-0.29,0.301-0.283c0.186,0.008,0.286,0.11,0.286,0.299c0.001,0.605,0.001,1.21,0.001,1.815
		c0,0.105,0,0.211,0,0.351c0.248,0,0.469,0.002,0.69-0.001c0.205-0.003,0.355,0.074,0.348,0.296
		c-0.006,0.203-0.154,0.276-0.344,0.275c-0.221-0.001-0.443,0-0.695,0c0,0.141,0,0.246,0,0.351c0,1.22,0,2.439,0,3.659
		c0,0.473,0.052,0.524,0.488,0.7c0.108,0.044,0.167,0.206,0.249,0.313c-0.113,0.086-0.222,0.236-0.341,0.246
		c-0.542,0.044-0.983-0.415-0.984-0.999c-0.003-1.307-0.001-2.615-0.001-3.922C61.901,37.517,61.901,37.411,61.901,37.274z"/>
	<path fill="#FFFFFF" d="M96.392,39.659c0,0.838-0.002,1.677,0.002,2.515c0.001,0.21-0.041,0.381-0.292,0.376
		c-0.246-0.004-0.291-0.177-0.291-0.384c0.002-1.696,0.002-3.393,0-5.089c0-0.211,0.054-0.378,0.299-0.377
		c0.252,0.001,0.284,0.178,0.283,0.385C96.389,37.943,96.392,38.801,96.392,39.659z"/>
	<path fill="#FFFFFF" d="M96.39,35.203c0.008,0.226,0.004,0.449-0.288,0.445c-0.288-0.003-0.286-0.228-0.291-0.441
		c-0.005-0.211,0.023-0.411,0.283-0.418C96.38,34.781,96.407,34.992,96.39,35.203z"/>
</g>
</svg>
