<?xml version="1.0" encoding="utf-8"?>
<!-- Generator: Adobe Illustrator 17.0.0, SVG Export Plug-In . SVG Version: 6.00 Build 0)  -->
<!DOCTYPE svg PUBLIC "-//W3C//DTD SVG 1.1//EN" "http://www.w3.org/Graphics/SVG/1.1/DTD/svg11.dtd">
<svg version="1.1" id="Capa_1" xmlns="http://www.w3.org/2000/svg" xmlns:xlink="http://www.w3.org/1999/xlink" x="0px" y="0px"
	 width="486.882px" height="411.812px" viewBox="49.284 164.461 486.882 411.812"
	 enable-background="new 49.284 164.461 486.882 411.812" xml:space="preserve">
<path d="M50.004,489.625c0.021,2.685,1.649,5.116,4.101,6.173l185.24,79.313c0.021,0,0.021,0.021,0.042,0.042
	c0.042,0.042,0.085,0.021,0.127,0.042l1.226,0.528c0.55,0.233,1.142,0.275,1.712,0.359c0.211,0.021,0.423,0.19,0.634,0.19
	c0.042,0,0.106-0.042,0.148-0.042s0.106,0.042,0.148,0.042c0.211,0,0.402-0.169,0.634-0.19c0.592-0.085,1.184-0.127,1.733-0.359
	l1.311-0.571c0.021-0.021,0.042,0,0.063-0.021c0,0,0-0.021,0.021-0.021l185.224-79.313c2.494-1.057,4.101-3.509,4.101-6.215v-71.915
	l66.801,12.324c0.402,0.063,0.803,0.106,1.226,0.106c2.241,0,4.376-1.12,5.644-3.044l25.008-37.881
	c0.021-0.042,0.021-0.063,0.042-0.085l0.042-0.042c0.063-0.127,0.042-0.275,0.106-0.381c0.55-0.972,0.803-2.008,0.824-3.107
	c0-0.38-0.127-0.719-0.169-1.12c-0.085-0.55-0.042-1.099-0.254-1.628c-0.127-0.296-0.402-0.486-0.571-0.761
	c-0.127-0.19-0.085-0.423-0.211-0.613L412.224,215.238c-0.951-1.289-2.325-2.177-3.868-2.558L206.729,164.63
	c-0.211-0.042-0.444,0.063-0.655,0.042c-0.296-0.042-0.592-0.211-0.888-0.211c-0.55,0-1.057,0.275-1.564,0.381
	c-0.381,0.106-0.74,0.127-1.12,0.275c-1.015,0.444-1.839,1.099-2.537,1.966c-0.106,0.127-0.275,0.148-0.359,0.275
	c-0.021,0.021,0,0.042-0.021,0.063c-0.021,0.042-0.042,0.042-0.085,0.063l-25.008,37.903c-1.48,2.262-1.48,5.2,0.021,7.483
	l22.619,34.077L53.091,307.784c-2.494,1.057-4.122,3.509-4.143,6.215c0,0.127,0.106,0.211,0.106,0.338
	c-0.021,0.127-0.106,0.275-0.106,0.402L50.004,489.625z M422.985,485.143l-172.853,74.01l-0.233-38.875v-121.21l37.522-16.087
	l3.636,5.496c0.465,0.676,1.12,1.142,1.733,1.585c0.169,0.148,0.317,0.317,0.507,0.465c0.19,0.127,0.381,0.169,0.571,0.275
	c0.698,0.423,1.374,0.846,2.177,0.994l126.897,23.401L422.985,485.143z M501.367,415.891l-192.79-35.556l16.911-25.642
	l192.79,35.577L501.367,415.891z M402.859,225.277l111.085,150.427l-149.708-27.608l-37.86-6.976L220.319,181.812L402.859,225.277z
	 M188.255,209.105l16.932-25.642L313.61,346.829l-16.932,25.621L188.255,209.105z M204.744,258.381l75.043,113.055l-36.486,15.601
	L73.002,314.044L204.744,258.381z M235.607,399.061l0.719,119.435v40.608l-172.837-74.01l-0.972-160.13L235.607,399.061z"/>
<path d="M103.276,408.196l70.438,31.35c0.888,0.38,1.818,0.592,2.748,0.592c1.289,0,2.579-0.381,3.699-1.099
	c1.903-1.247,3.086-3.403,3.086-5.708l-0.169-30.166c-0.021-2.664-1.585-5.052-4.016-6.13l-70.416-31.35
	c-2.114-0.972-4.524-0.74-6.469,0.507c-1.903,1.247-3.086,3.403-3.086,5.708l0.127,30.166
	C99.281,404.708,100.846,407.097,103.276,408.196L103.276,408.196z M169.59,407.604l0.063,15.326l-56.865-25.325l-0.085-15.326
	L169.59,407.604z"/>
</svg>
